<?xml version="1.0" encoding="UTF-8" standalone="no"?>
<svg
   width="973.27716"
   height="830.87994"
   viewBox="0 0 973.27716 830.87994"
   version="1.1"
   xml:space="preserve"
   style="clip-rule:evenodd;fill-rule:evenodd;stroke-linejoin:round;stroke-miterlimit:2"
   id="svg16"
   sodipodi:docname="wasabi.svg"
   inkscape:version="1.3.2 (091e20e, 2023-11-25)"
   xmlns:inkscape="http://www.inkscape.org/namespaces/inkscape"
   xmlns:sodipodi="http://sodipodi.sourceforge.net/DTD/sodipodi-0.dtd"
   xmlns="http://www.w3.org/2000/svg"
   xmlns:svg="http://www.w3.org/2000/svg"><defs
   id="defs16" /><sodipodi:namedview
   id="namedview16"
   pagecolor="#ffffff"
   bordercolor="#000000"
   borderopacity="0.25"
   inkscape:showpageshadow="2"
   inkscape:pageopacity="0.0"
   inkscape:pagecheckerboard="0"
   inkscape:deskcolor="#d1d1d1"
   inkscape:zoom="0.1501258"
   inkscape:cx="482.92831"
   inkscape:cy="482.92831"
   inkscape:window-width="1312"
   inkscape:window-height="1212"
   inkscape:window-x="1204"
   inkscape:window-y="41"
   inkscape:window-maximized="0"
   inkscape:current-layer="svg16" />
    <g
   id="g16"
   transform="translate(-1302.862,-525.355)">
        <path
   d="m 1784.48,1313.74 c -262.69,-5.89 -474.73,-74.96 -479.98,-263.58 -0.8,9.42 -1.34,19.14 -1.57,29.22 -4.47,198.64 211.87,270.44 480.6,276.46 268.73,6.03 488.08,-56 492.56,-254.64 0.19,-8.65 -0.21,-17.37 -0.54,-26.08 -15.96,185.66 -229.9,244.47 -491.07,238.62 z"
   style="fill:#8daa3d;fill-rule:nonzero"
   id="path1" />
        <path
   d="m 1784.48,1313.74 c 261.17,5.85 475.11,-52.97 491.07,-238.62 C 2268.33,883.409 2133,674.787 1780.59,525.355 1635.25,772.885 1329.8,751.018 1304.5,1050.16 c 5.25,188.62 217.29,257.69 479.98,263.58 z"
   style="fill:#9ec53b;fill-rule:nonzero"
   id="path2" />
        <path
   d="m 1365.96,1055.88 c -1.84,0 -3.6,-0.45 -5.26,-1.39 -19.04,-10.71 -19.09,-81.097 24.2,-143.534 37.62,-54.264 95.59,-84.662 122.62,-84.662 4.07,0 7.45,0.691 9.94,2.093 19.05,10.713 -20.31,58.929 -63.6,121.367 -39.51,56.986 -68.64,106.126 -87.9,106.126 z"
   style="fill:#b2d04e;fill-rule:nonzero"
   id="path3" />
        <path
   d="m 1543.6,809.003 c -2.4,0 -4.34,-0.871 -5.78,-2.826 -7.01,-9.533 0.64,-41.22 26.05,-58.609 12.91,-8.835 27.92,-12.278 40.48,-12.278 12.16,0 22.04,3.229 25.49,7.918 7.01,9.533 -15.16,21.494 -40.57,38.882 -20.2,13.822 -36.36,26.914 -45.67,26.913 z"
   style="fill:#b2d04e;fill-rule:nonzero"
   id="path4" />
        <path
   d="m 2190.94,1060.11 c 9.29,-2.14 17.31,-0.41 24.9,2.17 7.37,3.06 14.41,7.04 19.41,14.64 -9.76,1.99 -17.5,0.37 -24.89,-2.17 -7.18,-3.02 -13.93,-6.89 -19.42,-14.64 z"
   style="fill:#8daa3d;fill-rule:nonzero"
   id="path5" />
        <path
   d="m 2168.83,1115.8 c 9.89,-4.93 20.04,-5.4 29.89,-4.51 9.79,1.4 19.5,4.2 27.77,11.32 -10.67,3.21 -20.1,2.93 -29.56,2.05 -9.4,-1.38 -18.61,-3.3 -28.1,-8.86 z"
   style="fill:#8daa3d;fill-rule:nonzero"
   id="path6" />
        <path
   d="m 2197.93,1008.24 c 9.59,-1.43 16.97,0.29 24.33,2.73 7.22,2.95 14.07,6.52 21.09,14.18 -8.4,3.25 -16.89,1.77 -24.84,-0.93 -7.81,-3.2 -15.43,-7.72 -20.58,-15.98 z"
   style="fill:#8daa3d;fill-rule:nonzero"
   id="path7" />
        <path
   d="m 1992.35,1035.57 c -5.42,7.23 -11.2,14.21 -17.33,20.94 -2.62,2.87 -1.19,7.71 1.93,9.71 3.63,2.33 7.86,1.14 10.49,-1.75 6.13,-6.73 11.9,-13.7 17.33,-20.94 5.53,-7.38 -6.89,-15.34 -12.42,-7.96 z"
   style="fill:#efea43;fill-rule:nonzero"
   id="path8" />
        <path
   d="m 2026.06,1038 c -5.42,7.24 -11.19,14.21 -17.32,20.94 -2.63,2.88 -1.2,7.72 1.92,9.72 3.63,2.33 7.86,1.13 10.49,-1.75 6.13,-6.73 11.91,-13.71 17.33,-20.94 5.54,-7.39 -6.89,-15.34 -12.42,-7.97 z"
   style="fill:#efea43;fill-rule:nonzero"
   id="path9" />
        <path
   d="m 2059.78,1040.44 c -5.42,7.24 -11.2,14.21 -17.33,20.94 -2.63,2.88 -1.2,7.71 1.93,9.72 3.62,2.33 7.86,1.13 10.48,-1.75 6.14,-6.73 11.91,-13.71 17.33,-20.94 5.54,-7.39 -6.88,-15.34 -12.41,-7.97 z"
   style="fill:#efea43;fill-rule:nonzero"
   id="path10" />
        <path
   d="m 1526.08,1025.12 c -5.42,7.23 -11.2,14.21 -17.33,20.93 -2.62,2.88 -1.19,7.72 1.93,9.72 3.63,2.33 7.86,1.14 10.49,-1.75 6.13,-6.73 11.9,-13.71 17.33,-20.94 5.54,-7.38 -6.89,-15.34 -12.42,-7.96 z"
   style="fill:#efea43;fill-rule:nonzero"
   id="path11" />
        <path
   d="m 1559.79,1027.55 c -5.42,7.24 -11.19,14.21 -17.32,20.94 -2.63,2.88 -1.2,7.72 1.92,9.72 3.63,2.33 7.86,1.13 10.49,-1.75 6.13,-6.73 11.91,-13.71 17.33,-20.94 5.54,-7.39 -6.89,-15.34 -12.42,-7.97 z"
   style="fill:#efea43;fill-rule:nonzero"
   id="path12" />
        <path
   d="m 1593.51,1029.99 c -5.42,7.23 -11.2,14.21 -17.33,20.94 -2.62,2.88 -1.2,7.71 1.93,9.72 3.62,2.33 7.86,1.13 10.48,-1.75 6.14,-6.73 11.91,-13.71 17.33,-20.94 5.54,-7.39 -6.88,-15.34 -12.41,-7.97 z"
   style="fill:#efea43;fill-rule:nonzero"
   id="path13" />
        <path
   d="m 1789.5,1035.65 c -19.75,0 -38.55,-8.56 -51.57,-23.47 -3.67,-4.21 -3.24,-10.6 0.97,-14.281 4.21,-3.678 10.61,-3.241 14.28,0.97 9.18,10.501 22.41,16.531 36.32,16.531 13.91,0 27.15,-6.03 36.32,-16.531 3.68,-4.213 10.07,-4.647 14.28,-0.97 4.22,3.681 4.65,10.071 0.97,14.281 -13.01,14.91 -31.81,23.47 -51.57,23.47 z"
   style="fill:#272a26;fill-rule:nonzero"
   id="path14" />
        <path
   d="m 1956.54,995.262 c -10.71,-3.357 -21.43,-6.712 -32.14,-10.069 10.66,-5.269 21.16,-10.873 31.45,-16.893 12.82,-7.491 1.22,-27.445 -11.64,-19.927 -18.59,10.867 -37.75,20.5 -57.56,28.942 -9.76,4.155 -5.77,18.419 2.76,21.089 20.33,6.376 40.66,12.746 60.99,19.116 14.21,4.45 20.29,-17.827 6.14,-22.258 z"
   style="fill:#272a26;fill-rule:nonzero"
   id="path15" />
        <path
   d="m 1622.47,995.262 c 10.71,-3.357 21.42,-6.712 32.13,-10.069 -10.66,-5.269 -21.15,-10.873 -31.45,-16.893 -12.81,-7.491 -1.21,-27.445 11.65,-19.927 18.59,10.867 37.75,20.5 57.56,28.942 9.75,4.155 5.76,18.419 -2.76,21.089 -20.33,6.376 -40.67,12.746 -61,19.116 -14.2,4.45 -20.28,-17.827 -6.13,-22.258 z"
   style="fill:#272a26;fill-rule:nonzero"
   id="path16" />
    </g>
</svg>
